<svg width="200" height="200" viewBox="0 0 152 152" fill="none" xmlns="http://www.w3.org/2000/svg">
<g filter="url(#filter0_ii_282_2)">
<path d="M63.659 130.625C69.1438 140.125 82.8561 140.125 88.341 130.625L144.659 33.0785C148.573 26.2993 143.068 17.9607 135.296 18.8969L106.185 22.4029C99.2887 23.2337 93.3954 27.7609 90.8157 34.21L76 71.25L57 23.75L16.7038 18.8969C8.93178 17.9607 3.42658 26.2993 7.34067 33.0785L63.659 130.625Z" fill="url(#paint0_radial_282_2)"/>
<path d="M57 23.75L76 71.25L95 119.091C90.9207 126.157 80.6246 125.862 76.9557 118.575L27.4208 20.1875L57 23.75Z" fill="url(#paint1_radial_282_2)"/>
<path d="M144.659 33.0785L88.3409 130.625C82.8561 140.125 69.1438 140.125 63.659 130.625L57 119.091L38 86.1821C45.7268 99.4265 65.3087 97.9783 71.0034 83.7416L76 71.25L95 23.75L135.296 18.8969C143.068 17.9607 148.573 26.2993 144.659 33.0785Z" fill="#4896F3"/>
</g>
<defs>
<filter id="filter0_ii_282_2" x="6.04761" y="18.8246" width="163.905" height="166.925" filterUnits="userSpaceOnUse" color-interpolation-filters="sRGB">
<feFlood flood-opacity="0" result="BackgroundImageFix"/>
<feBlend mode="normal" in="SourceGraphic" in2="BackgroundImageFix" result="shape"/>
<feColorMatrix in="SourceAlpha" type="matrix" values="0 0 0 0 0 0 0 0 0 0 0 0 0 0 0 0 0 0 127 0" result="hardAlpha"/>
<feOffset dx="24" dy="48"/>
<feGaussianBlur stdDeviation="96"/>
<feComposite in2="hardAlpha" operator="arithmetic" k2="-1" k3="1"/>
<feColorMatrix type="matrix" values="0 0 0 0 0 0 0 0 0 0.12549 0 0 0 0 0.313726 0 0 0 0.2 0"/>
<feBlend mode="normal" in2="shape" result="effect1_innerShadow_282_2"/>
<feColorMatrix in="SourceAlpha" type="matrix" values="0 0 0 0 0 0 0 0 0 0 0 0 0 0 0 0 0 0 127 0" result="hardAlpha"/>
<feOffset dx="12" dy="24"/>
<feGaussianBlur stdDeviation="48"/>
<feComposite in2="hardAlpha" operator="arithmetic" k2="-1" k3="1"/>
<feColorMatrix type="matrix" values="0 0 0 0 0 0 0 0 0 0.12549 0 0 0 0 0.313726 0 0 0 0.1 0"/>
<feBlend mode="normal" in2="effect1_innerShadow_282_2" result="effect2_innerShadow_282_2"/>
</filter>
<radialGradient id="paint0_radial_282_2" cx="0" cy="0" r="1" gradientUnits="userSpaceOnUse" gradientTransform="translate(76 149.625) rotate(-90) scale(133 153.575)">
<stop stop-color="#24447F"/>
<stop offset="1" stop-color="#3661A2"/>
</radialGradient>
<radialGradient id="paint1_radial_282_2" cx="0" cy="0" r="1" gradientUnits="userSpaceOnUse" gradientTransform="translate(61.75 19) rotate(74.3578) scale(123.317 72.2423)">
<stop stop-color="#1D314F"/>
<stop offset="1" stop-color="#0D1A2E"/>
</radialGradient>
</defs>
</svg>
